<svg xmlns="http://www.w3.org/2000/svg" viewBox="0 0 1200 630" width="1200" height="630">
  <!-- Generated by dev/render-brand-images.cjs from images/logo-mark.svg. Source for og-image.png. -->
  <rect width="1200" height="630" fill="#FFF8EE"/>
  <circle cx="1080" cy="90" r="230" fill="#FCE9CF"/>
  <circle cx="1120" cy="560" r="110" fill="#F2A541" opacity="0.35"/>
  <g transform="translate(80 175) scale(4.4)">
    <path d="M7 42C15 40 24 42 32 48C40 42 49 40 57 42V48C49 46 40 49 32 56C24 49 15 46 7 48Z" fill="#5A1F1B"/>
  <path d="M30.5 47C23.5 42 17 40.5 12.5 41.5C7 35.5 4.5 29 4.5 23A13 13 0 0 1 30.5 17.5Z" fill="#C8553D"/>
  <path d="M33.5 47C40.5 42 47 40.5 51.5 41.5C57 35.5 59.5 29 59.5 23A13 13 0 0 0 33.5 17.5Z" fill="#F2A541"/>
  <path d="M12 27.5C18 26 24 27.5 28 31M12.5 34C18 32.5 23.5 34 28 37.5" fill="none" stroke="#FFF8EE" stroke-width="2.4" stroke-linecap="round"/>
  <path d="M52 27.5C46 26 40 27.5 36 31M51.5 34C46 32.5 40.5 34 36 37.5" fill="none" stroke="#5A1F1B" stroke-opacity=".55" stroke-width="2.4" stroke-linecap="round"/>
  </g>
  <text x="400" y="270" font-family="Fraunces, Georgia, 'Times New Roman', serif" font-size="96" font-weight="800" fill="#5A1F1B">Learn To Give</text>
  <text x="404" y="342" font-family="Fraunces, Georgia, 'Times New Roman', serif" font-size="44" font-weight="600" fill="#B84A33">Learning that gives back.</text>
  <text x="404" y="420" font-family="Nunito, Helvetica, Arial, sans-serif" font-size="30" font-weight="700" fill="#3B2A24">Free online tutoring in Telugu and English</text>
  <text x="404" y="462" font-family="Nunito, Helvetica, Arial, sans-serif" font-size="30" font-weight="700" fill="#3B2A24">for 4th and 5th graders in Hyderabad and Vijayawada</text>
</svg>
